<?xml version="1.0" encoding="utf-8"?>
<!-- Generator: Adobe Illustrator 26.5.0, SVG Export Plug-In . SVG Version: 6.00 Build 0)  -->
<svg version="1.1" id="Layer_1" xmlns="http://www.w3.org/2000/svg" xmlns:xlink="http://www.w3.org/1999/xlink" x="0px" y="0px"
	 viewBox="0 0 16 16" style="enable-background:new 0 0 16 16;" xml:space="preserve">
<style type="text/css">
	.st0{fill:#647278;}
</style>
<path class="st0" d="M15.8,12.5l-2.4-2.4C13.3,10,13.1,9.9,13,9.9h-0.4c1.7-2.2,1.3-5.4-0.9-7.1S6.3,1.5,4.6,3.7s-1.3,5.4,0.9,7.1
	c1.8,1.4,4.4,1.4,6.2,0v0.4c0,0.2,0.1,0.3,0.2,0.4l2.4,2.4c0.2,0.2,0.6,0.2,0.8,0c0,0,0,0,0,0l0.7-0.7
	C16.1,13.1,16.1,12.8,15.8,12.5z M8.6,9.9c-1.7,0-3.1-1.4-3.1-3.1s1.4-3.1,3.1-3.1s3.1,1.4,3.1,3.1S10.3,9.9,8.6,9.9z"/>
</svg>
